<mxfile host="app.diagrams.net" modified="2022-04-03T09:32:08.066Z" agent="5.0 (Macintosh; Intel Mac OS X 10_15_7) AppleWebKit/537.36 (KHTML, like Gecko) Chrome/99.0.4844.84 Safari/537.36" etag="2SxtdjdmXWJ4ggp2prrV" version="17.1.3" type="github">
  <diagram name="Page-1" id="74e2e168-ea6b-b213-b513-2b3c1d86103e">
    <mxGraphModel dx="1014" dy="791" grid="1" gridSize="10" guides="1" tooltips="1" connect="1" arrows="1" fold="1" page="1" pageScale="1" pageWidth="1100" pageHeight="850" background="none" math="0" shadow="0">
      <root>
        <mxCell id="0" />
        <mxCell id="1" parent="0" />
        <mxCell id="xgHJvRwQuuowP8dTzhzo-2" value="멤버" style="rounded=0;whiteSpace=wrap;html=1;" vertex="1" parent="1">
          <mxGeometry x="260" y="240" width="80" height="40" as="geometry" />
        </mxCell>
        <mxCell id="xgHJvRwQuuowP8dTzhzo-3" value="팀" style="rounded=0;whiteSpace=wrap;html=1;" vertex="1" parent="1">
          <mxGeometry x="540" y="240" width="80" height="40" as="geometry" />
        </mxCell>
        <mxCell id="xgHJvRwQuuowP8dTzhzo-4" value="가입" style="rhombus;whiteSpace=wrap;html=1;" vertex="1" parent="1">
          <mxGeometry x="400" y="235" width="90" height="50" as="geometry" />
        </mxCell>
        <mxCell id="xgHJvRwQuuowP8dTzhzo-5" value="&lt;u&gt;아이디&lt;/u&gt;" style="ellipse;whiteSpace=wrap;html=1;gradientColor=#ffffff;" vertex="1" parent="1">
          <mxGeometry x="150" y="190" width="60" height="40" as="geometry" />
        </mxCell>
        <mxCell id="xgHJvRwQuuowP8dTzhzo-6" value="창단일" style="ellipse;whiteSpace=wrap;html=1;" vertex="1" parent="1">
          <mxGeometry x="670" y="280" width="60" height="40" as="geometry" />
        </mxCell>
        <mxCell id="xgHJvRwQuuowP8dTzhzo-7" value="생년월일" style="ellipse;whiteSpace=wrap;html=1;" vertex="1" parent="1">
          <mxGeometry x="150" y="290" width="60" height="40" as="geometry" />
        </mxCell>
        <mxCell id="xgHJvRwQuuowP8dTzhzo-8" value="이름" style="ellipse;whiteSpace=wrap;html=1;" vertex="1" parent="1">
          <mxGeometry x="150" y="240" width="60" height="40" as="geometry" />
        </mxCell>
        <mxCell id="xgHJvRwQuuowP8dTzhzo-10" value="매니저" style="ellipse;whiteSpace=wrap;html=1;" vertex="1" parent="1">
          <mxGeometry x="670" y="220" width="60" height="40" as="geometry" />
        </mxCell>
        <mxCell id="xgHJvRwQuuowP8dTzhzo-11" value="팀명" style="ellipse;whiteSpace=wrap;html=1;" vertex="1" parent="1">
          <mxGeometry x="670" y="160" width="60" height="40" as="geometry" />
        </mxCell>
        <mxCell id="xgHJvRwQuuowP8dTzhzo-14" value="" style="endArrow=none;html=1;rounded=0;entryX=1;entryY=0.5;entryDx=0;entryDy=0;exitX=0;exitY=0.5;exitDx=0;exitDy=0;" edge="1" parent="1" source="xgHJvRwQuuowP8dTzhzo-2" target="xgHJvRwQuuowP8dTzhzo-5">
          <mxGeometry width="50" height="50" relative="1" as="geometry">
            <mxPoint x="370" y="350" as="sourcePoint" />
            <mxPoint x="420" y="300" as="targetPoint" />
          </mxGeometry>
        </mxCell>
        <mxCell id="xgHJvRwQuuowP8dTzhzo-21" value="" style="endArrow=none;html=1;rounded=0;entryX=1;entryY=0.5;entryDx=0;entryDy=0;exitX=0;exitY=0.5;exitDx=0;exitDy=0;" edge="1" parent="1" source="xgHJvRwQuuowP8dTzhzo-2" target="xgHJvRwQuuowP8dTzhzo-8">
          <mxGeometry width="50" height="50" relative="1" as="geometry">
            <mxPoint x="370" y="350" as="sourcePoint" />
            <mxPoint x="420" y="300" as="targetPoint" />
          </mxGeometry>
        </mxCell>
        <mxCell id="xgHJvRwQuuowP8dTzhzo-22" value="" style="endArrow=none;html=1;rounded=0;entryX=1;entryY=0.5;entryDx=0;entryDy=0;exitX=0;exitY=0.5;exitDx=0;exitDy=0;" edge="1" parent="1" source="xgHJvRwQuuowP8dTzhzo-2" target="xgHJvRwQuuowP8dTzhzo-7">
          <mxGeometry width="50" height="50" relative="1" as="geometry">
            <mxPoint x="370" y="350" as="sourcePoint" />
            <mxPoint x="420" y="300" as="targetPoint" />
          </mxGeometry>
        </mxCell>
        <mxCell id="xgHJvRwQuuowP8dTzhzo-26" value="" style="endArrow=none;html=1;rounded=0;entryX=1;entryY=0.5;entryDx=0;entryDy=0;exitX=0;exitY=0.5;exitDx=0;exitDy=0;" edge="1" parent="1" source="xgHJvRwQuuowP8dTzhzo-4" target="xgHJvRwQuuowP8dTzhzo-2">
          <mxGeometry width="50" height="50" relative="1" as="geometry">
            <mxPoint x="370" y="230" as="sourcePoint" />
            <mxPoint x="370" y="300" as="targetPoint" />
          </mxGeometry>
        </mxCell>
        <mxCell id="xgHJvRwQuuowP8dTzhzo-27" value="" style="endArrow=none;html=1;rounded=0;entryX=1;entryY=0.5;entryDx=0;entryDy=0;exitX=0;exitY=0.5;exitDx=0;exitDy=0;" edge="1" parent="1" source="xgHJvRwQuuowP8dTzhzo-3" target="xgHJvRwQuuowP8dTzhzo-4">
          <mxGeometry width="50" height="50" relative="1" as="geometry">
            <mxPoint x="320" y="350" as="sourcePoint" />
            <mxPoint x="370" y="300" as="targetPoint" />
          </mxGeometry>
        </mxCell>
        <mxCell id="xgHJvRwQuuowP8dTzhzo-28" value="" style="endArrow=none;html=1;rounded=0;exitX=0;exitY=0.5;exitDx=0;exitDy=0;entryX=1;entryY=0.5;entryDx=0;entryDy=0;" edge="1" parent="1" source="xgHJvRwQuuowP8dTzhzo-11" target="xgHJvRwQuuowP8dTzhzo-3">
          <mxGeometry width="50" height="50" relative="1" as="geometry">
            <mxPoint x="320" y="350" as="sourcePoint" />
            <mxPoint x="410" y="380" as="targetPoint" />
            <Array as="points" />
          </mxGeometry>
        </mxCell>
        <mxCell id="xgHJvRwQuuowP8dTzhzo-29" value="" style="endArrow=none;html=1;rounded=0;exitX=0;exitY=0.5;exitDx=0;exitDy=0;entryX=1;entryY=0.5;entryDx=0;entryDy=0;" edge="1" parent="1" source="xgHJvRwQuuowP8dTzhzo-10" target="xgHJvRwQuuowP8dTzhzo-3">
          <mxGeometry width="50" height="50" relative="1" as="geometry">
            <mxPoint x="320" y="350" as="sourcePoint" />
            <mxPoint x="620" y="320" as="targetPoint" />
          </mxGeometry>
        </mxCell>
        <mxCell id="xgHJvRwQuuowP8dTzhzo-30" value="" style="endArrow=none;html=1;rounded=0;exitX=0;exitY=0.5;exitDx=0;exitDy=0;entryX=1;entryY=0.5;entryDx=0;entryDy=0;" edge="1" parent="1" source="xgHJvRwQuuowP8dTzhzo-6" target="xgHJvRwQuuowP8dTzhzo-3">
          <mxGeometry width="50" height="50" relative="1" as="geometry">
            <mxPoint x="320" y="350" as="sourcePoint" />
            <mxPoint x="370" y="300" as="targetPoint" />
          </mxGeometry>
        </mxCell>
        <mxCell id="xgHJvRwQuuowP8dTzhzo-31" value="n" style="text;html=1;strokeColor=none;fillColor=none;align=center;verticalAlign=middle;whiteSpace=wrap;rounded=0;" vertex="1" parent="1">
          <mxGeometry x="320" y="235" width="60" height="30" as="geometry" />
        </mxCell>
        <mxCell id="xgHJvRwQuuowP8dTzhzo-32" value="1" style="text;html=1;strokeColor=none;fillColor=none;align=center;verticalAlign=middle;whiteSpace=wrap;rounded=0;" vertex="1" parent="1">
          <mxGeometry x="500" y="235" width="60" height="30" as="geometry" />
        </mxCell>
        <mxCell id="xgHJvRwQuuowP8dTzhzo-40" value="도움" style="ellipse;whiteSpace=wrap;html=1;" vertex="1" parent="1">
          <mxGeometry x="770" y="385" width="60" height="40" as="geometry" />
        </mxCell>
        <mxCell id="xgHJvRwQuuowP8dTzhzo-41" value="득점" style="ellipse;whiteSpace=wrap;html=1;" vertex="1" parent="1">
          <mxGeometry x="770" y="310" width="60" height="40" as="geometry" />
        </mxCell>
        <mxCell id="xgHJvRwQuuowP8dTzhzo-45" value="기록" style="ellipse;whiteSpace=wrap;html=1;" vertex="1" parent="1">
          <mxGeometry x="670" y="340" width="60" height="40" as="geometry" />
        </mxCell>
        <mxCell id="xgHJvRwQuuowP8dTzhzo-47" value="" style="endArrow=none;html=1;rounded=0;exitX=1;exitY=0.5;exitDx=0;exitDy=0;entryX=0;entryY=0.5;entryDx=0;entryDy=0;" edge="1" parent="1" source="xgHJvRwQuuowP8dTzhzo-3" target="xgHJvRwQuuowP8dTzhzo-45">
          <mxGeometry width="50" height="50" relative="1" as="geometry">
            <mxPoint x="410" y="410" as="sourcePoint" />
            <mxPoint x="660" y="360" as="targetPoint" />
          </mxGeometry>
        </mxCell>
        <mxCell id="xgHJvRwQuuowP8dTzhzo-48" value="" style="endArrow=none;html=1;rounded=0;entryX=0;entryY=0.5;entryDx=0;entryDy=0;exitX=1;exitY=0.5;exitDx=0;exitDy=0;" edge="1" parent="1" source="xgHJvRwQuuowP8dTzhzo-45" target="xgHJvRwQuuowP8dTzhzo-41">
          <mxGeometry width="50" height="50" relative="1" as="geometry">
            <mxPoint x="410" y="410" as="sourcePoint" />
            <mxPoint x="460" y="360" as="targetPoint" />
          </mxGeometry>
        </mxCell>
        <mxCell id="xgHJvRwQuuowP8dTzhzo-49" value="" style="endArrow=none;html=1;rounded=0;entryX=0;entryY=0.5;entryDx=0;entryDy=0;exitX=1;exitY=0.5;exitDx=0;exitDy=0;" edge="1" parent="1" source="xgHJvRwQuuowP8dTzhzo-45" target="xgHJvRwQuuowP8dTzhzo-40">
          <mxGeometry width="50" height="50" relative="1" as="geometry">
            <mxPoint x="410" y="410" as="sourcePoint" />
            <mxPoint x="460" y="360" as="targetPoint" />
          </mxGeometry>
        </mxCell>
        <mxCell id="xgHJvRwQuuowP8dTzhzo-51" value="게시판" style="rounded=0;whiteSpace=wrap;html=1;" vertex="1" parent="1">
          <mxGeometry x="540" y="430" width="80" height="40" as="geometry" />
        </mxCell>
        <mxCell id="xgHJvRwQuuowP8dTzhzo-52" value="" style="endArrow=none;html=1;rounded=0;entryX=0.5;entryY=1;entryDx=0;entryDy=0;exitX=0.5;exitY=0;exitDx=0;exitDy=0;" edge="1" parent="1" source="xgHJvRwQuuowP8dTzhzo-53" target="xgHJvRwQuuowP8dTzhzo-3">
          <mxGeometry width="50" height="50" relative="1" as="geometry">
            <mxPoint x="580" y="320" as="sourcePoint" />
            <mxPoint x="460" y="360" as="targetPoint" />
            <Array as="points" />
          </mxGeometry>
        </mxCell>
        <mxCell id="xgHJvRwQuuowP8dTzhzo-53" value="관리" style="rhombus;whiteSpace=wrap;html=1;" vertex="1" parent="1">
          <mxGeometry x="535" y="330" width="90" height="50" as="geometry" />
        </mxCell>
        <mxCell id="xgHJvRwQuuowP8dTzhzo-54" value="" style="endArrow=none;html=1;rounded=0;entryX=0.5;entryY=0;entryDx=0;entryDy=0;exitX=0.5;exitY=1;exitDx=0;exitDy=0;" edge="1" parent="1" source="xgHJvRwQuuowP8dTzhzo-53" target="xgHJvRwQuuowP8dTzhzo-51">
          <mxGeometry width="50" height="50" relative="1" as="geometry">
            <mxPoint x="589.9999999999998" y="340" as="sourcePoint" />
            <mxPoint x="589.9999999999998" y="290" as="targetPoint" />
            <Array as="points" />
          </mxGeometry>
        </mxCell>
        <mxCell id="xgHJvRwQuuowP8dTzhzo-55" value="1" style="text;html=1;strokeColor=none;fillColor=none;align=center;verticalAlign=middle;whiteSpace=wrap;rounded=0;" vertex="1" parent="1">
          <mxGeometry x="565" y="280" width="60" height="30" as="geometry" />
        </mxCell>
        <mxCell id="xgHJvRwQuuowP8dTzhzo-56" value="1" style="text;html=1;strokeColor=none;fillColor=none;align=center;verticalAlign=middle;whiteSpace=wrap;rounded=0;" vertex="1" parent="1">
          <mxGeometry x="565" y="400" width="60" height="30" as="geometry" />
        </mxCell>
        <mxCell id="xgHJvRwQuuowP8dTzhzo-57" value="게시글" style="ellipse;whiteSpace=wrap;html=1;" vertex="1" parent="1">
          <mxGeometry x="590" y="500" width="60" height="40" as="geometry" />
        </mxCell>
        <mxCell id="xgHJvRwQuuowP8dTzhzo-58" value="번호" style="ellipse;whiteSpace=wrap;html=1;" vertex="1" parent="1">
          <mxGeometry x="510" y="500" width="60" height="40" as="geometry" />
        </mxCell>
        <mxCell id="xgHJvRwQuuowP8dTzhzo-59" value="" style="endArrow=none;html=1;rounded=0;entryX=0.5;entryY=1;entryDx=0;entryDy=0;exitX=0.5;exitY=0;exitDx=0;exitDy=0;" edge="1" parent="1" source="xgHJvRwQuuowP8dTzhzo-58" target="xgHJvRwQuuowP8dTzhzo-51">
          <mxGeometry width="50" height="50" relative="1" as="geometry">
            <mxPoint x="410" y="410" as="sourcePoint" />
            <mxPoint x="460" y="360" as="targetPoint" />
          </mxGeometry>
        </mxCell>
        <mxCell id="xgHJvRwQuuowP8dTzhzo-60" value="" style="endArrow=none;html=1;rounded=0;entryX=0.5;entryY=1;entryDx=0;entryDy=0;exitX=0.5;exitY=0;exitDx=0;exitDy=0;" edge="1" parent="1" source="xgHJvRwQuuowP8dTzhzo-57" target="xgHJvRwQuuowP8dTzhzo-51">
          <mxGeometry width="50" height="50" relative="1" as="geometry">
            <mxPoint x="410" y="410" as="sourcePoint" />
            <mxPoint x="460" y="360" as="targetPoint" />
          </mxGeometry>
        </mxCell>
      </root>
    </mxGraphModel>
  </diagram>
</mxfile>
